<?xml version="1.0" encoding="utf-8"?>
<!-- Generator: Adobe Illustrator 19.1.1, SVG Export Plug-In . SVG Version: 6.00 Build 0)  -->
<svg version="1.1" id="Capa_1" xmlns="http://www.w3.org/2000/svg" xmlns:xlink="http://www.w3.org/1999/xlink" x="0px" y="0px"
	 viewBox="-53 176.6 488.3 488.3" style="enable-background:new -53 176.6 488.3 488.3;" xml:space="preserve">
<style type="text/css">
	.st0{fill:#FFFFFF;}
</style>
<g>
	<g>
		<path class="st0" d="M261.3,262h-227c-21.3,0-38.6,17.3-38.6,38.6v325.7c0,21.3,17.3,38.6,38.6,38.6h227
			c21.3,0,38.6-17.3,38.6-38.6V300.6C299.8,279.3,282.5,262,261.3,262z M272.8,626.2c0,6.4-5.2,11.6-11.6,11.6h-227
			c-6.4,0-11.6-5.2-11.6-11.6V300.6c0-6.4,5.2-11.6,11.6-11.6h227c6.4,0,11.6,5.2,11.6,11.6V626.2z"/>
		<path class="st0" d="M348,176.6H121c-21.3,0-38.6,17.3-38.6,38.6c0,7.5,6,13.5,13.5,13.5s13.5-6,13.5-13.5
			c0-6.4,5.2-11.6,11.6-11.6h227c6.4,0,11.6,5.2,11.6,11.6v325.7c0,6.4-5.2,11.6-11.6,11.6c-7.5,0-13.5,6-13.5,13.5
			s6,13.5,13.5,13.5c21.3,0,38.6-17.3,38.6-38.6V215.2C386.6,193.9,369.4,176.6,348,176.6z"/>
	</g>
</g>
</svg>
